<svg width="18" height="20" viewBox="0 0 18 20" fill="none" xmlns="http://www.w3.org/2000/svg">
<path fill-rule="evenodd" clip-rule="evenodd" d="M11.6063 0.0119003C11.5632 0.00421231 11.5189 0.000200272 11.4736 0.000200272C11.4283 0.000200272 11.384 0.00421231 11.3409 0.0119003H5.0843C2.597 0.0119003 0.500299 2.02973 0.500299 4.4909V15.3399C0.500299 17.9221 2.48574 19.8649 5.0843 19.8649H13.0723C15.5409 19.8649 17.5523 17.8199 17.5523 15.3399V6.0379C17.5523 5.84426 17.4774 5.65812 17.3433 5.51845L12.2773 0.242446C12.1359 0.0951573 11.9405 0.0119003 11.7363 0.0119003H11.6063ZM10.7236 1.5111L5.0843 1.5119C3.41283 1.5119 2.0003 2.8713 2.0003 4.4909V15.3399C2.0003 17.0863 3.30697 18.3649 5.0843 18.3649H13.0723C14.7068 18.3649 16.0523 16.997 16.0523 15.3399L16.052 6.98328L15.1755 6.98627C14.842 6.98587 14.4627 6.98516 14.041 6.9842C12.2707 6.98046 10.8264 5.59367 10.7288 3.84761L10.7236 3.6592V1.5111ZM15.231 5.48404L14.0443 5.4842C13.0379 5.48208 12.2236 4.66577 12.2236 3.6592V2.35205L15.231 5.48404ZM11.2944 10.1642C11.7086 10.1642 12.0444 10.5 12.0444 10.9142C12.0444 11.2939 11.7622 11.6077 11.3962 11.6574L11.2944 11.6642H9.5937V13.3654C9.5937 13.7796 9.25791 14.1154 8.8437 14.1154C8.464 14.1154 8.15021 13.8332 8.10055 13.4672L8.0937 13.3654V11.6642H6.3934C5.97919 11.6642 5.6434 11.3284 5.6434 10.9142C5.6434 10.5345 5.92555 10.2207 6.29163 10.171L6.3934 10.1642H8.0937V8.4644C8.0937 8.05019 8.42949 7.7144 8.8437 7.7144C9.2234 7.7144 9.53719 7.99655 9.58685 8.36263L9.5937 8.4644V10.1642H11.2944Z" />
</svg>
