<svg fill="none" viewBox="0 0 24 24" stroke-width="1.5" stroke="currentColor" class="w-6 h-6" xmlns="http://www.w3.org/2000/svg">
<path d="M17.8855 4.1126L17.8872 4.11431C20.0409 6.25887 20.0409 9.74113 17.8872 11.8857L17.8864 11.8864C16.9366 12.8363 15.7355 13.3566 14.4834 13.4742C14.4938 13.3191 14.5 13.1611 14.5 13L14.5 12.9771C14.5 12.8193 14.5 12.647 14.4907 12.4687C15.4793 12.3571 16.423 11.9441 17.1836 11.1836C18.9388 9.42829 18.9388 6.57171 17.1836 4.81645C15.4292 3.06206 12.5745 3.06119 10.8191 4.81383C10.6733 4.9556 10.5416 5.1086 10.4228 5.26844C10.2055 4.25519 9.54631 3.41248 8.66677 2.93961L8.3528 2.77081L8.09086 3.0126C7.95281 3.14003 7.84594 3.23694 7.72718 3.30292L7.71032 3.31229L7.87215 3.19577C8.23355 2.93556 8.5 2.51299 8.5 2C8.5 1.98667 8.49982 1.97337 8.49948 1.96012L8.62884 2.85641L9.3437 2.05218L9.41229 1.97502C9.60756 1.78886 9.9146 1.7917 10.1064 1.98355L11.0664 2.94355L11.316 3.19307L11.6347 3.04158C13.6818 2.06851 16.2017 2.41962 17.8855 4.1126ZM7.18 3.09L7.45366 3.45488L7.37244 3.5H7C6.51422 3.5 6.08975 3.26967 5.82 2.91L5.54376 2.54168L5.6164 2.5H6C6.48578 2.5 6.91025 2.73033 7.18 3.09ZM5.27883 2.69368L5.29141 2.68647L5.12785 2.80423C4.76645 3.06444 4.5 3.48701 4.5 4C4.5 3.44592 4.80904 2.96324 5.27883 2.69368ZM5.12979 5.31507L4.91425 5.03321C5.1878 5.3205 5.57362 5.5 6 5.5C6.42638 5.5 6.8122 5.3205 7.08575 5.03321L6.87021 5.31507L7.28785 5.61577C7.42645 5.71556 7.5 5.85299 7.5 6V7.35V7.70409L7.83401 7.82164C9.97018 8.57343 11.5 10.6088 11.5 13C11.5 16.0339 9.03386 18.5 6 18.5C2.96614 18.5 0.5 16.0339 0.5 13C0.5 10.6088 2.02982 8.57343 4.16599 7.82164L4.5 7.70409V7.35V6C4.5 5.85299 4.57355 5.71556 4.71215 5.61577L5.12979 5.31507ZM6 17.5C8.48614 17.5 10.5 15.4861 10.5 13C10.5 10.5139 8.48614 8.5 6 8.5C3.51386 8.5 1.5 10.5139 1.5 13C1.5 15.4861 3.51386 17.5 6 17.5Z" />
</svg>
