<svg width="28" height="23" viewBox="0 0 28 23" fill="none" xmlns="http://www.w3.org/2000/svg">
<path d="M5.66024 5.2374C6.82726 4.48916 8.18149 4.06154 9.57903 4M3.4695 7.36114C2.63073 8.58891 2.18465 10.0297 2.18726 11.5025C2.18969 12.9173 1.77798 14.3038 1 15.5006M3.05344 19.0642C4.99128 16.9946 4.50422 16.2956 4.5 13.5C4.5 12.5042 5.3327 9.70417 6.05875 9C6.78479 8.29583 7.97322 7.36114 9 7.36114M8.5 11.5025C8.50576 15.0832 8.61727 18.5472 6.21361 21.2651M12 13C10.496 14.0057 11.6365 20.3637 10.496 22" stroke="currentColor" stroke-width="1.5" stroke-linecap="round" stroke-linejoin="round"/>
<path fill-rule="evenodd" clip-rule="evenodd" d="M17.0219 0C13.1438 0 10 3.07436 10 6.86677C10 10.6592 13.1438 13.7335 17.0219 13.7335C18.5553 13.7335 19.974 13.2528 21.1289 12.4371C21.178 12.5864 21.2619 12.7268 21.3806 12.8454L26.2367 17.6977L26.3527 17.7978C26.7577 18.098 27.3318 18.0639 27.6982 17.6958C28.1013 17.2909 28.1005 16.6354 27.6963 16.2315L22.8403 11.3792L22.7242 11.2791C22.6557 11.2284 22.5824 11.1872 22.5061 11.1555C23.4683 9.98038 24.0437 8.48929 24.0437 6.86677C24.0437 3.07436 20.8999 0 17.0219 0ZM17.0219 1.05767C20.3026 1.05767 22.9622 3.65849 22.9622 6.86677C22.9622 10.075 20.3026 12.6759 17.0219 12.6759C13.7411 12.6759 11.0816 10.075 11.0816 6.86677C11.0816 3.65849 13.7411 1.05767 17.0219 1.05767Z" fill="currentColor"/>
</svg>
