
<svg width="18" height="19" viewBox="0 0 18 19" fill="none" xmlns="http://www.w3.org/2000/svg">
<path d="M17 11.0272H12.7L13.43 7.02722H17C17.2652 7.02722 17.5196 6.92187 17.7071 6.73433C17.8946 6.54679 18 6.29244 18 6.02722C18 5.76201 17.8946 5.50765 17.7071 5.32012C17.5196 5.13258 17.2652 5.02722 17 5.02722H13.79L14.48 1.21722C14.5073 1.08353 14.5069 0.945666 14.4789 0.812125C14.4509 0.678584 14.3958 0.552187 14.3171 0.440714C14.2385 0.329241 14.1378 0.235051 14.0213 0.16394C13.9049 0.0928288 13.7751 0.0463017 13.64 0.027222C13.5057 -0.00478061 13.3662 -0.00861173 13.2303 0.0159699C13.0944 0.0405515 12.965 0.093013 12.8504 0.170049C12.7358 0.247085 12.6384 0.347025 12.5643 0.463571C12.4902 0.580118 12.4411 0.710746 12.42 0.847222L11.67 5.02722H7.79L8.48 1.21722C8.50727 1.08353 8.50688 0.945666 8.47887 0.812125C8.45086 0.678584 8.39582 0.552187 8.31714 0.440714C8.23845 0.329241 8.13778 0.235051 8.02133 0.16394C7.90488 0.0928288 7.77511 0.0463017 7.64 0.027222C7.50566 -0.00478061 7.36615 -0.00861173 7.23026 0.0159699C7.09437 0.0405515 6.96504 0.093013 6.85042 0.170049C6.73581 0.247085 6.63839 0.347025 6.56431 0.463571C6.49024 0.580118 6.4411 0.710746 6.42 0.847222L5.67 5.02722H1C0.734784 5.02722 0.48043 5.13258 0.292893 5.32012C0.105357 5.50765 0 5.76201 0 6.02722C0 6.29244 0.105357 6.54679 0.292893 6.73433C0.48043 6.92187 0.734784 7.02722 1 7.02722H5.3L4.57 11.0272H1C0.734784 11.0272 0.48043 11.1326 0.292893 11.3201C0.105357 11.5077 0 11.762 0 12.0272C0 12.2924 0.105357 12.5468 0.292893 12.7343C0.48043 12.9219 0.734784 13.0272 1 13.0272H4.21L3.52 16.8372C3.49273 16.9709 3.49312 17.1088 3.52113 17.2423C3.54914 17.3759 3.60418 17.5023 3.68286 17.6137C3.76155 17.7252 3.86222 17.8194 3.97867 17.8905C4.09512 17.9616 4.22489 18.0081 4.36 18.0272C4.49434 18.0592 4.63385 18.0631 4.76974 18.0385C4.90563 18.0139 5.03496 17.9614 5.14958 17.8844C5.26419 17.8074 5.36161 17.7074 5.43569 17.5909C5.50976 17.4743 5.5589 17.3437 5.58 17.2072L6.33 13.0272H10.21L9.52 16.8372C9.49273 16.9709 9.49312 17.1088 9.52113 17.2423C9.54914 17.3759 9.60418 17.5023 9.68286 17.6137C9.76155 17.7252 9.86222 17.8194 9.97867 17.8905C10.0951 17.9616 10.2249 18.0081 10.36 18.0272C10.4943 18.0592 10.6338 18.0631 10.7697 18.0385C10.9056 18.0139 11.035 17.9614 11.1496 17.8844C11.2642 17.8074 11.3616 17.7074 11.4357 17.5909C11.5098 17.4743 11.5589 17.3437 11.58 17.2072L12.33 13.0272H17C17.2652 13.0272 17.5196 12.9219 17.7071 12.7343C17.8946 12.5468 18 12.2924 18 12.0272C18 11.762 17.8946 11.5077 17.7071 11.3201C17.5196 11.1326 17.2652 11.0272 17 11.0272ZM6.7 11.0272L7.43 7.02722H11.3L10.57 11.0272H6.7Z" fill="currentColor"/>
</svg>