<svg width="25" height="20" viewBox="0 0 25 20" fill="currentColor" xmlns="http://www.w3.org/2000/svg">
<path fill-rule="evenodd" clip-rule="evenodd" d="M5.138 20C4.726 20 4.335 19.968 3.967 19.905L3.749 19.864C1.378 19.371 0 17.555 0 14.791V5.209C0 4.875 0.02 4.555 0.06 4.249C0.409 1.564 2.254 0 5.138 0H12.863C16.059 0 17.97 1.92 18 5.132V5.209V14.791C18 18.048 16.084 20 12.863 20H5.138ZM5.138 1.457C2.682 1.457 1.437 2.72 1.437 5.209V14.791C1.437 17.28 2.682 18.543 5.138 18.543H12.854C15.309 18.543 16.546 17.28 16.546 14.791V5.209C16.546 2.72 15.309 1.457 12.854 1.457H5.138ZM13.306 14.234C13.306 13.834 12.987 13.51 12.593 13.51H5.382C4.988 13.51 4.668 13.834 4.668 14.234C4.668 14.634 4.988 14.958 5.382 14.958H12.593C12.987 14.958 13.306 14.634 13.306 14.234ZM12.593 9.271C12.868 9.241 13.137 9.373 13.284 9.61C13.431 9.849 13.431 10.151 13.284 10.39C13.137 10.627 12.868 10.759 12.593 10.729H5.382C5.016 10.687 4.739 10.374 4.739 10C4.739 9.626 5.016 9.312 5.382 9.271H12.593ZM8.777 5.771C8.777 5.397 8.5 5.083 8.134 5.042H5.391C5.024 5.083 4.747 5.397 4.747 5.771C4.747 6.144 5.024 6.458 5.391 6.499H8.134C8.5 6.458 8.777 6.144 8.777 5.771Z" />
<path fill-rule="evenodd" clip-rule="evenodd" d="M16.1698 0C11.6577 0 8 3.57696 8 7.98937C8 12.4018 11.6577 15.9787 16.1698 15.9787C18.0996 15.9787 19.8731 15.3244 21.271 14.2303L23.9265 16.8204L23.9971 16.8798C24.2437 17.0582 24.5932 17.0379 24.8163 16.8192C25.0617 16.5786 25.0612 16.189 24.8151 15.9491L22.1909 13.3895C23.5252 11.9675 24.3396 10.0714 24.3396 7.98937C24.3396 3.57696 20.6819 0 16.1698 0ZM16.1698 1.23058C19.9869 1.23058 23.0813 4.25659 23.0813 7.98937C23.0813 11.7221 19.9869 14.7482 16.1698 14.7482C12.3527 14.7482 9.25837 11.7221 9.25837 7.98937C9.25837 4.25659 12.3527 1.23058 16.1698 1.23058Z" />
</svg>
