<svg width="24" height="28" viewBox="0 0 24 28" fill="none" xmlns="http://www.w3.org/2000/svg">
<path d="M17.9974 12C13.5471 14.3785 7.95239 13.2163 6.09598 12H5.99426V14.6758H5.48565C4.92101 14.6758 3.88354 14.4055 4.01069 15.5678C4.10939 16.4699 4.994 16.6129 5.53651 16.676C7.3675 22.6223 9.73251 25.2981 12.5298 24.9737C15.3272 24.6494 17.3955 19.4779 18.4805 16.703C18.5439 16.5408 18.6586 16.676 19.5995 16.4327C20.1589 15.9192 20.0826 14.8921 19.6758 14.7299H17.9974V12Z" stroke="black" stroke-width="0.5"/>
<path d="M8.42065 17.9981C6.42896 18.0598 5.97757 16.5983 6.00084 15.8599C5.9792 15.5516 6.39639 15.359 6.60579 15.3205C6.51272 15.3092 7.62956 14.8774 10.0494 15.3012C11.6316 14.6077 13.1517 15.3333 13.0043 15.3012C13.9661 15.1535 16.0431 14.9699 16.6573 15.4168C17.3833 15.9562 16.7892 16.9515 16.4014 17.3817C15.6547 18.21 13.6093 18.1907 13.0043 17.3817C12.7717 17.2661 12.4692 16.9193 12.3761 15.9562C11.706 15.6171 10.8715 15.8149 10.538 15.9562C10.6621 16.6111 10.4123 17.9365 8.42065 17.9981Z" stroke="black" stroke-width="0.5"/>
<path d="M14 4.69254C12.3398 3.43829 10.6416 4.16993 10 4.69254C10 6.21555 11.6241 6.97706 12.1053 6.99946C12.5865 7.02186 13.5489 6.34994 14 4.69254Z" stroke="black" stroke-width="0.5"/>
<path d="M19.9989 11.0721C13.8397 7.3193 6.79331 9.50845 4.04003 11.0721C3.97205 10.9208 3.87177 11.1881 4.01453 13.4681C3.68312 13.4681 2.81634 13.6194 2.48493 14.5021C2.15565 14.9323 2.00056 15.4857 2.00056 16.1415C1.98356 16.7131 2.35746 17.6547 2.89282 18.1843C3.70861 18.714 4.04003 18.8653 4.01453 18.9914C6.15598 24.086 8.27193 26.4315 11.9175 26.9611C15.563 27.4907 18.2653 22.4971 19.9989 18.8653C22.5227 17.6295 22.0893 16.0154 21.7069 14.7039C21.401 13.6547 20.4408 13.4429 19.9989 13.4681V11.0721Z" stroke="black" stroke-width="0.5"/>
<path d="M8.40472 8.20461C6.14741 8.39196 4.61711 9.4449 4.13413 9.94796C3.71963 9.62974 3.21662 9.21625 2.73602 8.77742C1.48751 7.63742 0.390251 6.32648 1.38875 6.07097C3.97144 5.77954 8.19289 3.13937 9.98077 1.85571C10.5146 1.2399 12.1364 0.35175 14.353 1.72561C14.9377 2.29805 16.4121 3.1307 18.2423 4.53578C21.7757 6.64341 22.5638 5.57658 22.8942 6.27913C23.2247 6.98167 22.9197 6.92963 19.9455 10C19.2591 9.32348 18.8778 9.32348 18.7507 9.19338C18.6236 9.06328 18.5728 8.98522 16.5138 8.41277C14.5564 7.78829 11.2264 7.97043 8.40472 8.20461Z" stroke="black" stroke-width="0.5"/>
</svg>
