<svg xmlns="http://www.w3.org/2000/svg" width="22" height="23" viewBox="0 0 22 23" fill="none">
<path d="M14 18C16.7614 18 19 15.7614 19 13C19 10.2386 16.7614 8 14 8C11.2386 8 9 10.2386 9 13C9 15.7614 11.2386 18 14 18Z" stroke="currentColor" stroke-width="2" stroke-linecap="round" stroke-linejoin="round"/>
<path d="M20.7188 18.7188L18 16" stroke="currentColor" stroke-width="2" stroke-linecap="round" stroke-linejoin="round"/>
<path d="M5.5 1H3.25C2.65326 1 2.08097 1.23705 1.65901 1.65901C1.23705 2.08097 1 2.65326 1 3.25V19.75C1 20.3467 1.23705 20.919 1.65901 21.341C2.08097 21.7629 2.65326 22 3.25 22H10.75C11.3467 22 11.919 21.7629 12.341 21.341C12.7629 20.919 13 20.3467 13 19.75V18M5.5 1V2.5H8.5V1M5.5 1H8.5M8.5 1H10.75C11.3467 1 11.919 1.23705 12.341 1.65901C12.7629 2.08097 13 2.65326 13 3.25V8.18963M5.5 19.75H8.5" stroke="currentColor" stroke-width="1.5" stroke-linecap="round" stroke-linejoin="round"/>
</svg>