<svg xmlns="http://www.w3.org/2000/svg" width="192" height="130" viewBox="0 0 192 130" fill="none">
<path d="M182.159 102C181.946 102 181.741 101.919 181.586 101.774C181.431 101.63 181.336 101.431 181.321 101.219C180.772 93.7616 177.423 86.786 171.945 81.6886C166.467 76.5913 159.264 73.748 151.777 73.7279C150.881 73.7279 149.94 73.7734 148.979 73.8632C148.819 73.8782 148.657 73.8468 148.514 73.7726C148.371 73.6983 148.252 73.5845 148.172 73.4447C144.733 67.4321 139.597 62.5644 133.405 59.4488C127.214 56.3333 120.241 55.108 113.357 55.9258C106.473 56.7436 99.9819 59.5683 94.6948 64.0474C89.4077 68.5265 85.5584 74.4616 83.6271 81.1121C83.5761 81.2903 83.4673 81.4465 83.3176 81.5562C83.168 81.6658 82.9861 81.7226 82.8006 81.7177L82.5772 81.7109C82.4609 81.7071 82.3448 81.703 82.2276 81.703C76.5489 81.7207 71.047 83.6773 66.6348 87.248C62.2225 90.8186 59.1652 95.7888 57.9701 101.334C57.9304 101.522 57.827 101.691 57.6772 101.813C57.5275 101.934 57.3405 102 57.1477 102H0.840476C0.617568 102 0.403789 101.912 0.246169 101.754C0.0885493 101.597 0 101.383 0 101.161C0 100.938 0.0885493 100.724 0.246169 100.567C0.403789 100.41 0.617568 100.321 0.840476 100.321H56.4751C57.8757 94.5536 61.17 89.4208 65.8325 85.7419C70.495 82.0629 76.2568 80.0499 82.1986 80.024C84.3139 73.1898 88.3707 67.1163 93.8762 62.5413C99.3817 57.9662 106.099 55.0866 113.212 54.2522C120.325 53.4178 127.527 54.6646 133.944 57.8411C140.361 61.0175 145.716 65.987 149.359 72.1457C150.186 72.0813 150.997 72.0489 151.777 72.0489C159.689 72.0703 167.301 75.0751 173.09 80.462C178.879 85.8489 182.417 93.2205 182.998 101.102C183.006 101.212 182.992 101.322 182.957 101.427C182.922 101.531 182.866 101.628 182.794 101.711C182.722 101.794 182.633 101.863 182.535 101.912C182.436 101.961 182.328 101.99 182.218 101.998C182.198 101.999 182.178 102 182.159 102Z" fill="#E5E5E5"/>
<path d="M172.157 113H33.8434C33.6197 113 33.4052 112.895 33.247 112.707C33.0889 112.52 33 112.265 33 112C33 111.735 33.0889 111.481 33.247 111.293C33.4052 111.105 33.6197 111 33.8434 111H172.157C172.38 111 172.595 111.105 172.753 111.293C172.911 111.481 173 111.735 173 112C173 112.265 172.911 112.52 172.753 112.707C172.595 112.895 172.38 113 172.157 113Z" fill="#E5E5E5"/>
<path d="M68.1579 125H21.8421C21.6188 125 21.4046 124.895 21.2467 124.707C21.0887 124.52 21 124.265 21 124C21 123.735 21.0887 123.481 21.2467 123.293C21.4046 123.105 21.6188 123 21.8421 123H68.1579C68.3812 123 68.5954 123.105 68.7534 123.293C68.9113 123.481 69 123.735 69 124C69 124.265 68.9113 124.52 68.7534 124.707C68.5954 124.895 68.3812 125 68.1579 125Z" fill="#E5E5E5"/>
<path d="M190 103C190 117.912 177.912 130 163 130C148.088 130 136 117.912 136 103C136 88.0884 148.088 76.0001 163 76.0001C177.912 76.0001 190 88.0884 190 103Z" fill="white"/>
<path d="M157.292 44.273C155.85 43.7411 154.598 42.7936 153.694 41.5501C152.79 40.3066 152.276 38.8231 152.215 37.2872C152.155 35.7512 152.551 34.2318 153.354 32.9211C154.157 31.6104 155.33 30.5672 156.726 29.9235C158.122 29.2797 159.678 29.0644 161.196 29.3047C162.714 29.545 164.127 30.23 165.256 31.2733C166.385 32.3166 167.179 33.6712 167.538 35.1658C167.897 36.6605 167.805 38.228 167.273 39.6702C166.558 41.6026 165.105 43.1725 163.234 44.0354C161.363 44.8983 159.226 44.9837 157.292 44.273ZM162.29 30.7202C161.052 30.2635 159.706 30.1843 158.422 30.4926C157.139 30.8008 155.976 31.4827 155.08 32.452C154.184 33.4213 153.596 34.6344 153.39 35.938C153.184 37.2416 153.369 38.5771 153.921 39.7756C154.474 40.9741 155.37 41.9818 156.495 42.6713C157.62 43.3607 158.925 43.701 160.244 43.649C161.563 43.597 162.836 43.1551 163.904 42.3792C164.972 41.6033 165.785 40.5283 166.242 39.29C166.852 37.6294 166.779 35.7945 166.038 34.1879C165.297 32.5813 163.949 31.3342 162.29 30.7202Z" fill="currentColor" fill-opacity="0.2"/>
<path d="M162.961 37.6928L161.714 34.1089C161.68 34.0117 161.626 33.923 161.554 33.8489C161.483 33.7749 161.396 33.7173 161.3 33.6801C161.204 33.6429 161.101 33.6269 160.998 33.6334C160.896 33.6399 160.796 33.6687 160.705 33.7176L157.273 35.5758C157.108 35.666 156.986 35.8178 156.933 35.9979C156.88 36.178 156.9 36.3718 156.99 36.5368C157.079 36.7019 157.23 36.825 157.41 36.879C157.59 36.9331 157.783 36.9137 157.949 36.8253L159.725 35.864L158.409 39.4316C158.344 39.6084 158.352 39.8038 158.431 39.9749C158.51 40.146 158.653 40.2788 158.83 40.3439C159.007 40.4091 159.202 40.4014 159.373 40.3225C159.544 40.2436 159.677 40.1 159.742 39.9232L161.024 36.4482L161.619 38.1598C161.681 38.3377 161.811 38.4838 161.981 38.5658C162.151 38.6479 162.346 38.6592 162.524 38.5972C162.702 38.5353 162.848 38.4052 162.93 38.2356C163.012 38.066 163.023 37.8707 162.961 37.6928Z" fill="currentColor" fill-opacity="0.2"/>
<path d="M81.4774 50.6076C79.969 50.9036 78.4068 50.7456 76.9882 50.1537C75.5696 49.5617 74.3583 48.5624 73.5077 47.2821C72.657 46.0018 72.2051 44.498 72.2091 42.9609C72.2131 41.4237 72.6728 39.9223 73.5301 38.6464C74.3874 37.3706 75.6038 36.3776 77.0255 35.793C78.4472 35.2085 80.0102 35.0586 81.5171 35.3624C83.0239 35.6662 84.4068 36.4101 85.4909 37.4998C86.575 38.5896 87.3116 39.9763 87.6075 41.4847C88.002 43.5071 87.5781 45.6034 86.4289 47.3137C85.2796 49.024 83.4989 50.2086 81.4774 50.6076ZM78.6962 36.4329C77.4011 36.687 76.2104 37.3194 75.2747 38.2503C74.339 39.1811 73.7004 40.3684 73.4396 41.6622C73.1787 42.956 73.3074 44.2981 73.8093 45.5187C74.3112 46.7394 75.1637 47.7838 76.2592 48.5199C77.3547 49.256 78.6438 49.6507 79.9637 49.6541C81.2835 49.6576 82.5747 49.2696 83.6739 48.5392C84.7732 47.8088 85.6312 46.7688 86.1395 45.5508C86.6477 44.3328 86.7833 42.9914 86.5292 41.6963C86.1867 39.9605 85.1696 38.4316 83.7011 37.4448C82.2326 36.4581 80.4327 36.0942 78.6962 36.4329Z" fill="currentColor" fill-opacity="0.2"/>
<path d="M82.8966 42.0386L79.9672 39.6265C79.8877 39.5611 79.795 39.5137 79.6954 39.4877C79.5958 39.4616 79.4917 39.4576 79.3904 39.4757C79.2891 39.4938 79.1929 39.5338 79.1085 39.5928C79.0242 39.6518 78.9536 39.7284 78.9018 39.8173L76.9368 43.1897C76.8432 43.3524 76.8178 43.5456 76.8662 43.727C76.9146 43.9084 77.0328 44.0632 77.195 44.1578C77.3572 44.2523 77.5503 44.2787 77.7319 44.2314C77.9136 44.184 78.0691 44.0667 78.1645 43.905L79.1812 42.1602L79.9133 45.8916C79.9496 46.0765 80.0578 46.2394 80.2142 46.3444C80.3706 46.4495 80.5623 46.4882 80.7472 46.4519C80.9321 46.4156 81.095 46.3074 81.2 46.151C81.3051 45.9946 81.3438 45.8029 81.3075 45.618L80.5944 41.9835L81.9934 43.1355C82.1389 43.2553 82.326 43.3123 82.5135 43.2942C82.7011 43.276 82.8737 43.1841 82.9935 43.0386C83.1132 42.8932 83.1703 42.7061 83.1521 42.5185C83.134 42.331 83.0421 42.1583 82.8966 42.0386Z" fill="currentColor" fill-opacity="0.2"/>
<path d="M154.825 112.649C151.893 112.649 149.026 111.78 146.588 110.151C144.151 108.522 142.25 106.207 141.128 103.498C140.006 100.789 139.713 97.8082 140.285 94.9325C140.857 92.0569 142.269 89.4154 144.342 87.3421C146.415 85.2689 149.057 83.857 151.932 83.285C154.808 82.713 157.789 83.0065 160.498 84.1286C163.206 85.2506 165.522 87.1507 167.151 89.5886C168.78 92.0265 169.649 94.8926 169.649 97.8246C169.645 101.755 168.081 105.523 165.302 108.302C162.523 111.081 158.755 112.645 154.825 112.649ZM154.825 85.0961C152.307 85.0961 149.846 85.8427 147.753 87.2413C145.66 88.6399 144.028 90.6278 143.065 92.9537C142.102 95.2795 141.849 97.8388 142.341 100.308C142.832 102.777 144.044 105.045 145.824 106.825C147.604 108.605 149.872 109.817 152.341 110.309C154.81 110.8 157.37 110.548 159.696 109.584C162.021 108.621 164.009 106.989 165.408 104.896C166.807 102.803 167.553 100.342 167.553 97.8246C167.549 94.45 166.207 91.2146 163.821 88.8284C161.435 86.4421 158.199 85.0999 154.825 85.0961Z" fill="currentColor" fill-opacity="0.2"/>
<path d="M160.628 97.1313L156.031 91.5407C155.906 91.389 155.75 91.2663 155.573 91.1809C155.396 91.0956 155.203 91.0498 155.006 91.0465C154.81 91.0433 154.615 91.0827 154.436 91.1621C154.256 91.2415 154.096 91.359 153.966 91.5065L149.05 97.0971C148.815 97.3673 148.697 97.7195 148.72 98.0768C148.744 98.4341 148.909 98.7674 149.178 99.0039C149.447 99.2404 149.798 99.3608 150.156 99.3389C150.513 99.317 150.847 99.1544 151.085 98.8869L153.629 95.9944V103.247C153.629 103.607 153.772 103.952 154.026 104.206C154.28 104.46 154.625 104.603 154.984 104.603C155.343 104.603 155.688 104.46 155.942 104.206C156.196 103.952 156.339 103.607 156.339 103.247V96.1828L158.535 98.8527C158.763 99.1303 159.092 99.3059 159.45 99.3407C159.807 99.3756 160.164 99.2669 160.442 99.0387C160.72 98.8104 160.895 98.4812 160.93 98.1235C160.965 97.7658 160.856 97.4088 160.628 97.1313Z" fill="currentColor" fill-opacity="0.2"/>
<mask id="mask0_1_183" style="mask-type:alpha" maskUnits="userSpaceOnUse" x="96" y="1" width="85" height="73">
<path d="M116.151 2.48795C116.341 1.94991 116.942 1.67955 117.471 1.8943L179.577 27.1249C180.087 27.3323 180.334 27.9134 180.128 28.4245L162.325 72.6917C162.139 73.155 161.639 73.4098 161.155 73.2887L156.079 72.0197C156.026 72.0066 155.973 71.9977 155.919 71.9933L150.403 71.5336C150.145 71.512 149.904 71.3908 149.734 71.1956L143.059 63.5668C143.02 63.5224 142.977 63.4814 142.931 63.4445L138.083 59.5662C138.028 59.5222 137.968 59.4841 137.905 59.4526L131.112 56.0561C131.038 56.0188 130.959 55.991 130.877 55.9734L119.638 53.53C119.546 53.5101 119.453 53.5032 119.359 53.5094L112.08 53.9946C112.027 53.9982 111.974 54.006 111.922 54.018L105.598 55.4775C105.533 55.4924 105.469 55.5139 105.409 55.5415L100.074 57.9665C100.025 57.9888 99.9775 58.015 99.9327 58.0449L97.9962 59.3359C97.1965 59.869 96.1786 59.0773 96.4985 58.171L116.151 2.48795Z" fill="#E12020"/>
</mask>
<g mask="url(#mask0_1_183)">
<path d="M106.309 45.4896C106.513 44.9767 107.095 44.7269 107.608 44.9316L152.187 62.7285C152.7 62.9333 152.95 63.5151 152.745 64.028V64.028C152.54 64.5409 151.958 64.7907 151.445 64.586L106.867 46.7891C106.354 46.5843 106.104 46.0025 106.309 45.4896V45.4896Z" fill="#E5E5E5"/>
<path d="M104.455 50.1332C104.66 49.6203 105.241 49.3705 105.754 49.5753L150.333 67.3722C150.846 67.5769 151.096 68.1587 150.891 68.6717V68.6717C150.686 69.1846 150.105 69.4344 149.592 69.2296L105.013 51.4327C104.5 51.2279 104.25 50.6461 104.455 50.1332V50.1332Z" fill="#E5E5E5"/>
<path d="M102.601 54.7768C102.806 54.2639 103.388 54.0141 103.9 54.2189L148.479 72.0158C148.992 72.2206 149.242 72.8024 149.037 73.3153V73.3153C148.832 73.8282 148.251 74.078 147.738 73.8732L103.159 56.0763C102.646 55.8716 102.396 55.2898 102.601 54.7768V54.7768Z" fill="#E5E5E5"/>
<path d="M100.747 59.4205C100.952 58.9075 101.534 58.6577 102.047 58.8625L146.625 76.6594C147.138 76.8642 147.388 77.446 147.183 77.9589V77.9589C146.979 78.4718 146.397 78.7216 145.884 78.5168L101.305 60.7199C100.792 60.5152 100.542 59.9334 100.747 59.4205V59.4205Z" fill="#E5E5E5"/>
<path d="M98.8933 64.0641C99.0981 63.5512 99.6799 63.3014 100.193 63.5061L144.772 81.303C145.285 81.5078 145.534 82.0896 145.33 82.6025V82.6025C145.125 83.1155 144.543 83.3653 144.03 83.1605L99.4512 65.3636C98.9383 65.1588 98.6885 64.577 98.8933 64.0641V64.0641Z" fill="#E5E5E5"/>
<path d="M112.612 29.7012C112.816 29.1883 113.398 28.9385 113.911 29.1433L150.132 43.6033C150.644 43.808 150.894 44.3898 150.689 44.9028V44.9028C150.485 45.4157 149.903 45.6655 149.39 45.4607L113.17 31.0007C112.657 30.796 112.407 30.2142 112.612 29.7012V29.7012Z" fill="#E5E5E5"/>
<rect x="114.836" y="24.1289" width="21" height="2" rx="1" transform="rotate(21.763 114.836 24.1289)" fill="#E5E5E5"/>
<path d="M108.163 40.846C108.367 40.333 108.949 40.0832 109.462 40.288L154.041 58.0849C154.554 58.2897 154.804 58.8715 154.599 59.3844V59.3844C154.394 59.8973 153.812 60.1471 153.299 59.9424L108.72 42.1455C108.208 41.9407 107.958 41.3589 108.163 40.846V40.846Z" fill="#E5E5E5"/>
<path fill-rule="evenodd" clip-rule="evenodd" d="M174.262 29.01L121.325 7.87622C120.042 7.3643 118.588 7.98881 118.076 9.27111L69.8761 130.005C69.3642 131.288 69.9887 132.742 71.271 133.254L124.208 154.388C125.491 154.9 126.945 154.275 127.457 152.993L175.657 32.2588C176.169 30.9765 175.544 29.522 174.262 29.01ZM121.881 6.48314C119.829 5.66406 117.502 6.66328 116.683 8.71496L68.483 129.449C67.664 131.501 68.6632 133.828 70.7149 134.647L123.652 155.781C125.704 156.6 128.031 155.601 128.85 153.549L177.05 32.8149C177.869 30.7632 176.87 28.436 174.818 27.617L121.881 6.48314Z" fill="#E5E5E5"/>
</g>
<path d="M35.4124 62.1059C35.3114 61.563 35.6697 61.0409 36.2126 60.9399L74.5547 53.8066C75.0977 53.7056 75.6198 54.0639 75.7208 54.6069V54.6069C75.8218 55.1498 75.4635 55.6719 74.9205 55.7729L36.5784 62.9062C36.0355 63.0072 35.5134 62.6489 35.4124 62.1059V62.1059Z" fill="#E5E5E5"/>
<rect x="34.315" y="56.2072" width="21" height="2" rx="1" transform="rotate(-10.539 34.315 56.2072)" fill="#E5E5E5"/>
<rect x="38" y="76.8412" width="21" height="2" rx="1" transform="rotate(-10.539 38 76.8412)" fill="#E5E5E5"/>
<rect x="39" y="80.8412" width="41.7898" height="2" rx="1" transform="rotate(-10.539 39 80.8412)" fill="#E5E5E5"/>
<path d="M37.6073 73.9035C37.5063 73.3605 37.8645 72.8385 38.4075 72.7375L85.5978 63.9581C86.1407 63.8571 86.6628 64.2153 86.7638 64.7583V64.7583C86.8648 65.3013 86.5065 65.8233 85.9636 65.9243L38.7733 74.7037C38.2303 74.8048 37.7083 74.4465 37.6073 73.9035V73.9035Z" fill="#E5E5E5"/>
<mask id="mask1_1_183" style="mask-type:alpha" maskUnits="userSpaceOnUse" x="28" y="26" width="72" height="81">
<rect x="28.856" y="36.1323" width="60.6054" height="70.7753" rx="3.25" transform="rotate(-8.80427 28.856 36.1323)" stroke="currentColor" stroke-opacity="0.3" stroke-width="1.5"/>
</mask>
<g mask="url(#mask1_1_183)">
<path d="M28.5 59.0001L25 47.0001V29.0001H38L57 18.5001H93L97.5 61.0001L83 81.0001L63 89.5001L57 102H36L28.5 59.0001Z" fill="currentColor" fill-opacity="0.3" />
</g>
<path d="M21.4773 50.4034V44.7784H22.4318V50.4034H21.4773ZM19.142 48.0682V47.1136H24.767V48.0682H19.142Z" fill="currentColor" fill-opacity="0.3"/>
<path d="M25.4773 66.4034V60.7784H26.4318V66.4034H25.4773ZM23.142 64.0682V63.1136H28.767V64.0682H23.142Z" fill="currentColor" fill-opacity="0.3"/>
<path d="M187.477 56.4034V50.7784H188.432V56.4034H187.477ZM185.142 54.0682V53.1136H190.767V54.0682H185.142Z" fill="currentColor" fill-opacity="0.3"/>
<circle cx="183" cy="40" r="2.5" stroke="currentColor" stroke-opacity="0.3"/>
<circle cx="35" cy="26" r="2.5" stroke="currentColor" stroke-opacity="0.3" />
</svg>