<svg width="20" height="20" viewBox="0 0 20 20" fill="none" xmlns="http://www.w3.org/2000/svg">
<path fill-rule="evenodd" clip-rule="evenodd" d="M14.3345 0.000200272H5.6655C2.26793 0.000200272 0.000499725 2.4328 0.000499725 5.9162V14.0842C0.000499725 17.5709 2.26187 20.0002 5.6655 20.0002H14.3335C17.7381 20.0002 20.0005 17.5709 20.0005 14.0842V5.9162C20.0005 2.4297 17.7383 0.000200272 14.3345 0.000200272ZM5.6655 1.5002H14.3345C16.885 1.5002 18.5005 3.23516 18.5005 5.9162V14.0842C18.5005 16.7654 16.8849 18.5002 14.3335 18.5002H5.6655C3.11526 18.5002 1.5005 16.7655 1.5005 14.0842V5.9162C1.5005 3.23857 3.12084 1.5002 5.6655 1.5002ZM7.07072 7.06241C7.33702 6.79618 7.75369 6.77201 8.04727 6.9899L8.13138 7.06253L9.9991 8.93063L11.8652 7.06457C12.1581 6.77168 12.6329 6.77168 12.9258 7.06457C13.1921 7.33084 13.2163 7.7475 12.9984 8.04111L12.9258 8.12523L11.0597 9.99141L12.9274 11.8595C13.2202 12.1524 13.2202 12.6273 12.9273 12.9202C12.661 13.1864 12.2443 13.2106 11.9507 12.9927L11.8666 12.9201L9.99899 11.0521L8.13383 12.9172C7.84094 13.2101 7.36606 13.2101 7.07317 12.9172C6.8069 12.651 6.7827 12.2343 7.00055 11.9407L7.07317 11.8566L8.93845 9.99129L7.07061 8.12307C6.77775 7.83015 6.7778 7.35528 7.07072 7.06241Z" fill="#200E32"/>
</svg>
