<svg width="51" height="35" viewBox="0 0 51 35" fill="none" xmlns="http://www.w3.org/2000/svg">
<path d="M49.0039 2.6H48.3439C48.2639 2.12 47.8739 1.75 47.3739 1.75H47.0439C46.2039 0.65 44.9039 0 43.5139 0C42.9639 0 42.5139 0.45 42.5139 1V1.75H5.79385C5.35385 1.75 4.96385 2.04 4.83385 2.47L4.69385 2.93C4.24385 2.97 3.66385 2.98 3.26385 2.89C2.77385 2.77 2.27385 2.95 1.96385 3.33C1.65385 3.71 1.59385 4.22 1.80385 4.67L3.26385 7.78L2.58385 10.09C2.48385 10.43 2.57385 10.8 2.81385 11.06C5.44385 13.83 5.40385 17.58 2.67385 22.19C0.913851 25.17 0.253852 28.86 0.0138517 31.44C-0.0661483 32.23 0.203852 33.01 0.733851 33.6C1.26385 34.18 2.02385 34.52 2.81385 34.52H11.5139C12.2639 34.52 13.0039 34.22 13.5339 33.68C14.0439 33.17 14.3339 32.49 14.3239 31.78C14.3239 23.9 16.2439 21.56 17.0039 20.94C18.0839 21.5 19.3539 21.84 20.7239 21.84C24.6539 21.84 27.8439 19.13 27.8439 15.8C27.8439 14.77 27.5439 13.78 26.9839 12.91H46.1039C46.5339 12.91 46.9139 12.63 47.0539 12.22L48.3239 8.38C48.3439 8.33 48.3339 8.28 48.3439 8.22C48.3539 8.17 48.3739 8.12 48.3739 8.06V8.05H49.0039C49.5539 8.05 50.0039 7.6 50.0039 7.05V3.59C50.0039 3.05 49.5539 2.6 49.0039 2.6ZM20.7239 19.84C17.8939 19.84 15.5939 18.03 15.5939 15.8C15.5939 14.71 16.1539 13.67 17.1539 12.91H18.4439C18.4439 14.67 19.0639 17.02 21.4339 17.87C21.5439 17.91 21.6639 17.93 21.7739 17.93C22.1839 17.93 22.5739 17.68 22.7139 17.27C22.9039 16.75 22.6339 16.18 22.1139 15.99C20.6739 15.48 20.4439 13.9 20.4539 12.92H24.3039C25.2939 13.68 25.8639 14.72 25.8639 15.81C25.8439 18.03 23.5439 19.84 20.7239 19.84ZM24.6639 10.91C24.6239 10.91 24.5839 10.91 24.5439 10.91H16.8239C16.6139 10.91 16.4139 10.98 16.2539 11.09C14.5639 12.24 13.5939 13.96 13.5939 15.8C13.5939 17.31 14.2539 18.69 15.3439 19.75C14.0439 21.08 12.3239 24.26 12.3239 31.78C12.3239 32.01 12.2139 32.17 12.1139 32.26C11.9539 32.42 11.7339 32.51 11.5139 32.51H2.81385C2.58385 32.51 2.36385 32.42 2.20385 32.24C2.06385 32.08 1.98385 31.86 2.00385 31.63C2.18385 29.69 2.74385 26.01 4.40385 23.21C7.45385 18.04 7.54385 13.53 4.66385 10.13L6.54385 3.76H46.3739V7.07V7.08H9.92385C9.37385 7.08 8.92385 7.53 8.92385 8.08C8.92385 8.63 9.37385 9.08 9.92385 9.08H45.9839L45.3739 10.92L24.6639 10.91Z" fill="currentColor"/>
</svg>
