<svg width="24" height="24" viewBox="0 0 24 24" fill="none" xmlns="http://www.w3.org/2000/svg">
<g clip-path="url(#clip0_107_6)">
<path d="M11.704 0.14063C11.704 0.202505 11.6961 0.555005 11.6842 0.92813C11.6744 1.29938 11.6566 1.92375 11.6448 2.31375C11.6329 2.70563 11.6211 3.02813 11.6191 3.03C11.6171 3.03375 11.5757 3.02625 11.5303 3.015C11.4829 3.00375 11.4415 2.99813 11.4375 3.00375C11.4316 3.0075 11.4691 3.11063 11.5184 3.2325C11.5698 3.3525 11.6053 3.45563 11.5994 3.46125C11.5934 3.46688 11.5323 3.45563 11.4632 3.435C11.3961 3.41438 11.3369 3.39938 11.3349 3.40125C11.3309 3.40313 11.3566 3.5475 11.3902 3.72188C11.4217 3.89438 11.4454 4.03875 11.4415 4.04438C11.4375 4.04813 11.3645 4.03125 11.2816 4.005C11.1494 3.96563 11.1277 3.96375 11.1178 3.98813C11.1 4.03313 11.1257 4.38375 11.1612 4.53938C11.177 4.61813 11.2204 4.785 11.2559 4.91063C11.2954 5.0475 11.3132 5.1375 11.3013 5.1375C11.2895 5.1375 11.1948 5.11313 11.0921 5.08313C10.9895 5.05313 10.9027 5.03625 10.8987 5.04188C10.8967 5.04938 10.9342 5.18438 10.9836 5.34C11.0329 5.4975 11.0724 5.62875 11.0724 5.6325C11.0724 5.63813 10.9895 5.595 10.8908 5.53875C10.7902 5.48438 10.6994 5.4375 10.6915 5.4375C10.6737 5.4375 10.6895 5.61188 10.7191 5.775C10.7467 5.91938 10.8237 6.1425 10.9145 6.34313C10.9579 6.43875 10.9934 6.52125 10.9934 6.52875C10.9934 6.53438 10.8967 6.50438 10.7763 6.45938C10.5277 6.3675 10.5356 6.36188 10.6007 6.58125C10.6421 6.72375 10.7132 6.8625 10.8178 6.9975C10.8494 7.04063 10.875 7.08 10.875 7.0875C10.875 7.09688 10.7862 7.10813 10.6777 7.11563C10.5691 7.12313 10.4803 7.1325 10.4803 7.13813C10.4803 7.14188 10.5336 7.215 10.5967 7.29938C10.6619 7.38375 10.7408 7.49813 10.7744 7.5525C10.8375 7.65563 10.9421 7.875 10.9303 7.88438C10.9263 7.88813 10.8178 7.8225 10.6875 7.74188C10.5573 7.66125 10.4428 7.59375 10.4329 7.59375C10.4231 7.59375 10.4211 7.68375 10.427 7.80375C10.4448 8.1 10.5178 8.36063 10.65 8.60813L10.6994 8.70188L10.6441 8.68875C10.6145 8.68125 10.5277 8.655 10.4527 8.63063C10.3777 8.60813 10.3125 8.5875 10.3106 8.5875C10.3066 8.5875 10.3461 8.6775 10.3954 8.78813C10.5395 9.11438 10.5336 9.0825 10.4408 9.0675C10.3895 9.06 10.3619 9.06375 10.3619 9.07688C10.3619 9.10688 10.5513 9.45 10.6382 9.57938C10.6816 9.64313 10.7132 9.69375 10.7073 9.69375C10.7033 9.69375 10.6244 9.6525 10.5356 9.60188C10.3402 9.49125 10.3421 9.48938 10.3895 9.77438C10.425 9.98813 10.5099 10.2825 10.5987 10.5075C10.6303 10.59 10.654 10.6594 10.652 10.6613C10.65 10.6631 10.577 10.6106 10.4902 10.545C10.4053 10.4794 10.3323 10.4288 10.3283 10.4325C10.3204 10.44 10.4171 10.7756 10.4823 10.9594C10.5158 11.0513 10.5849 11.2163 10.6402 11.3231C10.6934 11.43 10.7329 11.5219 10.729 11.5256C10.725 11.5313 10.6441 11.4863 10.5494 11.4281C10.4546 11.37 10.3737 11.325 10.3717 11.3288C10.3678 11.3325 10.4073 11.4169 10.4606 11.5163C10.5119 11.6175 10.5849 11.79 10.6244 11.9006C10.6954 12.1069 10.7724 12.4406 10.7527 12.4594C10.7467 12.465 10.7092 12.4519 10.6698 12.4294C10.6303 12.4069 10.5928 12.3919 10.5888 12.3956C10.575 12.4106 10.6974 12.8306 10.7665 12.9956C10.8059 13.0931 10.8849 13.2506 10.9382 13.3481C10.9934 13.4438 11.025 13.5169 11.0112 13.5094C10.9954 13.5 10.9461 13.4681 10.8987 13.4381C10.8513 13.4081 10.8099 13.3875 10.8059 13.3913C10.804 13.3931 10.9106 13.5769 11.0448 13.7981C11.179 14.0194 11.2895 14.2013 11.2895 14.2031C11.2895 14.2069 11.2362 14.1956 11.1711 14.1806C11.104 14.1638 11.0467 14.1563 11.0388 14.1619C11.0211 14.1788 11.1257 14.4469 11.2066 14.595C11.2461 14.6663 11.3329 14.7975 11.3981 14.8856C11.5638 15.1088 11.5599 15.1013 11.4671 15.0563C11.4217 15.0338 11.3823 15.0188 11.3803 15.0225C11.3763 15.0263 11.4573 15.2044 11.5579 15.4219C11.6566 15.6375 11.7356 15.8194 11.7316 15.8231C11.7296 15.8269 11.702 15.8119 11.6724 15.7894C11.6428 15.7669 11.6171 15.7519 11.6132 15.7556C11.6092 15.7575 11.6329 15.84 11.6665 15.9375C11.7652 16.2263 11.8737 16.6519 11.9586 17.0719C12.0632 17.5838 12.0612 17.5688 12.0434 17.5688C12.0217 17.5688 11.6606 17.085 11.4336 16.7531C11.2441 16.4756 11.0783 16.2094 10.9579 15.9863C10.8967 15.8738 10.8849 15.8606 10.879 15.9C10.875 15.9263 10.8652 15.9525 10.8573 15.96C10.8454 15.9731 10.5967 15.3938 10.5652 15.2831C10.5494 15.2269 10.5336 15.2344 10.5 15.315L10.4684 15.3844L10.4349 15.1819C10.4152 15.0713 10.3777 14.9175 10.352 14.8406C10.2908 14.6663 10.1921 14.4563 10.1704 14.4563C10.1606 14.4563 10.127 14.4994 10.0954 14.55C10.0263 14.6625 10.0441 14.6963 9.90595 14.1975C9.84871 13.9894 9.79542 13.8188 9.78753 13.8188C9.77963 13.8188 9.76779 13.86 9.7599 13.9125C9.74608 14.0006 9.71055 14.0625 9.71055 13.995C9.71055 13.8769 9.44805 13.2994 9.30003 13.0913L9.24279 13.0106L9.21911 13.095C9.20726 13.1419 9.19345 13.1813 9.18753 13.1813C9.18358 13.1813 9.13029 13.11 9.07108 13.0256C8.94476 12.8456 8.78687 12.5381 8.72174 12.3469C8.69805 12.2738 8.6724 12.21 8.6645 12.2006C8.65858 12.1931 8.63687 12.2569 8.61713 12.3413C8.59937 12.4275 8.57766 12.5138 8.57174 12.5325C8.56384 12.5588 8.53819 12.5063 8.48687 12.3694C8.40398 12.1481 8.29937 11.9363 8.15726 11.7094L8.06253 11.5594L8.04476 11.7319C8.0349 11.8275 8.02305 11.9063 8.01516 11.9063C8.00924 11.9063 7.952 11.8069 7.89082 11.685C7.74476 11.3981 7.47437 11.0063 7.42305 11.0063C7.41516 11.0063 7.38753 11.0813 7.36187 11.175L7.3145 11.3419L7.27305 11.1788C7.21582 10.9594 7.12305 10.6875 7.10332 10.6875C7.09542 10.6875 7.08358 10.7044 7.07569 10.7231C7.06976 10.7438 7.052 10.7681 7.03819 10.7794C7.01648 10.7963 6.99476 10.7606 6.92766 10.5994C6.88029 10.4869 6.8349 10.3894 6.827 10.38C6.81911 10.3706 6.77569 10.4344 6.73029 10.5188L6.6474 10.6763L6.58226 10.5131C6.49937 10.3013 6.35924 10.0819 6.20134 9.91875C6.13226 9.84563 6.06911 9.7875 6.06121 9.7875C6.05134 9.7875 6.01976 9.89813 5.98819 10.0331C5.93884 10.2488 5.92898 10.275 5.90726 10.2431C5.86187 10.1869 5.78292 9.91688 5.74542 9.70313L5.71187 9.5025L5.56582 9.61875L5.41779 9.73688L5.40398 9.6825C5.39805 9.6525 5.38029 9.57938 5.36845 9.51938C5.34476 9.40688 5.21253 9.13313 5.16121 9.09375C5.13161 9.07125 5.10398 9.12 4.99937 9.36188C4.98161 9.40125 4.96187 9.4275 4.952 9.41813C4.94411 9.41063 4.90858 9.33563 4.87503 9.25313C4.84148 9.17063 4.7724 9.03 4.72503 8.94188C4.63424 8.77688 4.43095 8.52188 4.40332 8.54063C4.39345 8.54438 4.36582 8.62688 4.34213 8.72063C4.31648 8.81438 4.29082 8.88375 4.28095 8.87438C4.27108 8.865 4.202 8.75063 4.127 8.6175L3.99082 8.3775L3.89608 8.54813C3.84279 8.64188 3.79542 8.71875 3.7895 8.71875C3.78358 8.71875 3.71845 8.61563 3.64148 8.49C3.56648 8.36438 3.46384 8.21063 3.41648 8.14875C3.31779 8.02125 3.14213 7.8375 3.11648 7.8375C3.10858 7.8375 3.06911 7.89188 3.02963 7.95938C2.99016 8.02688 2.95463 8.08125 2.95069 8.08125C2.94674 8.08125 2.86582 7.97625 2.77305 7.84688C2.68029 7.71938 2.5974 7.61063 2.5895 7.605C2.58161 7.60125 2.54805 7.6425 2.51648 7.69875C2.4849 7.755 2.45332 7.8 2.4474 7.8C2.44148 7.8 2.39805 7.71375 2.35069 7.60688C2.30332 7.50188 2.25792 7.40813 2.25003 7.40063C2.24213 7.39125 2.2145 7.41938 2.18884 7.46063L2.14148 7.53563L1.08753 6.58125C0.507265 6.05625 0.0276594 5.62875 0.023712 5.63438C0.00792255 5.6475 0.467791 6.51188 0.653317 6.81563C0.878317 7.18688 1.02832 7.4025 1.21976 7.6275C1.35003 7.78313 1.53161 7.94625 1.60266 7.97625C1.62042 7.98188 1.61253 7.99688 1.58095 8.01938C1.44674 8.11313 1.45069 8.10188 1.49805 8.19C1.54937 8.28375 1.66384 8.3625 1.77634 8.37563C1.81976 8.38125 1.86121 8.3925 1.86516 8.4C1.87108 8.4075 1.8474 8.44688 1.81582 8.48438C1.75069 8.56313 1.75069 8.57625 1.82569 8.71875C1.88292 8.82375 1.9599 8.895 2.06253 8.93625L2.14148 8.96625L2.08621 9.01125C2.04674 9.04313 2.03292 9.0675 2.04279 9.09375C2.06055 9.14625 2.16121 9.21375 2.2895 9.25875L2.39805 9.29813H2.22437L2.05069 9.3L2.10595 9.39563C2.13555 9.44813 2.19476 9.52875 2.23621 9.57375C2.31516 9.65813 2.64871 9.88125 2.69805 9.88125C2.71187 9.88125 2.72371 9.88875 2.72371 9.89813C2.72371 9.9075 2.66648 9.92438 2.59542 9.9375C2.52437 9.95063 2.46713 9.96375 2.46713 9.9675C2.46713 9.99375 2.57371 10.1681 2.64082 10.2544C2.73753 10.3763 2.87371 10.4719 3.01384 10.5131C3.07108 10.53 3.11845 10.5488 3.11845 10.5544C3.11845 10.56 3.08095 10.5806 3.03358 10.5994C2.87569 10.6613 2.87569 10.6556 3.05924 10.8169L3.22503 10.9631L3.15003 11.0006L3.07503 11.0363L3.14213 11.085C3.24871 11.1619 3.36713 11.2125 3.47766 11.2275L3.58226 11.2406L3.42832 11.3044C3.34542 11.34 3.27634 11.37 3.27634 11.3719C3.27634 11.3738 3.30003 11.4169 3.32963 11.4675C3.46976 11.7056 3.73226 11.85 4.02634 11.85C4.06976 11.85 4.10529 11.8556 4.10529 11.8631C4.10529 11.8725 4.02437 11.9063 3.92766 11.9419C3.82898 11.9756 3.74411 12.0131 3.73819 12.0206C3.7224 12.0469 3.89411 12.2663 4.00069 12.3563C4.10529 12.4425 4.33029 12.5531 4.44674 12.5738C4.5395 12.5888 4.52766 12.6 4.34608 12.6656C4.26713 12.6956 4.19805 12.7256 4.19411 12.7331C4.17437 12.7613 4.49805 13.0275 4.62042 13.0838L4.74674 13.1419L4.65792 13.1775C4.57503 13.2113 4.57305 13.215 4.61845 13.2263C4.68161 13.2413 5.19476 13.3313 5.21845 13.3313C5.31911 13.3313 4.75266 13.4231 4.63819 13.425C4.59082 13.425 4.65003 13.4681 4.86319 13.5825C5.16319 13.7456 5.35661 13.8356 5.54016 13.8919L5.70595 13.9425L5.58555 13.9763C5.45726 14.01 5.31121 14.0756 5.23226 14.1338C5.17305 14.1788 5.12371 14.1638 5.72371 14.2875C5.97832 14.34 6.19937 14.3869 6.21516 14.3925C6.2349 14.3981 6.21121 14.4319 6.13819 14.5031L6.03358 14.6044L6.08095 14.6438C6.16582 14.715 6.43819 14.8256 6.64937 14.8763C6.76187 14.9025 6.87042 14.925 6.89016 14.925C6.94937 14.925 6.93358 14.9494 6.83687 15.0075C6.72832 15.0731 6.72437 15.0675 6.98687 15.195C7.18819 15.2944 7.40924 15.3675 7.56516 15.3844C7.62634 15.3919 7.67766 15.4013 7.67766 15.4069C7.67766 15.4106 7.6599 15.45 7.63819 15.4913C7.61648 15.5344 7.60463 15.5756 7.61253 15.5831C7.6224 15.5906 7.83753 15.6319 8.09213 15.6713C8.44542 15.7275 8.55398 15.7519 8.55003 15.7706C8.54608 15.7856 8.52042 15.825 8.49279 15.8588C8.46516 15.8925 8.4474 15.9263 8.45332 15.9319C8.45924 15.9356 8.68424 15.9881 8.95463 16.0444C9.22305 16.1006 9.44805 16.1513 9.452 16.155C9.45595 16.1588 9.43029 16.1944 9.39674 16.2338C9.36319 16.275 9.33555 16.3163 9.33555 16.3256C9.33555 16.335 9.43621 16.3575 9.55858 16.3744C10.4369 16.5056 11.1217 16.8281 11.7908 17.4225L11.9665 17.5781L11.9152 17.6044C11.8678 17.6288 11.8204 17.6231 11.4671 17.5613C10.7823 17.4394 10.5079 17.3606 10.1053 17.1694C9.96911 17.1056 9.85266 17.0513 9.84476 17.0475C9.83687 17.0438 9.82898 17.0625 9.82503 17.0888C9.81911 17.1356 9.81121 17.1319 9.3849 16.9125C9.14608 16.7888 8.94279 16.6875 8.9349 16.6875C8.92503 16.6875 8.92108 16.7381 8.92503 16.8C8.92898 16.875 8.92305 16.9106 8.90924 16.905C8.8974 16.9013 8.70595 16.7794 8.48292 16.6331C8.25792 16.4869 8.07042 16.3688 8.0645 16.3688C8.06055 16.3688 8.05266 16.3969 8.04871 16.4325L8.04279 16.4944L7.64805 16.32C7.43095 16.2225 7.25332 16.1438 7.24937 16.1438C7.2474 16.1438 7.24345 16.1681 7.2395 16.2L7.23358 16.2544L6.80924 16.0575L6.3849 15.8625L6.37898 15.9375C6.37503 15.9788 6.36516 16.0125 6.35332 16.0125C6.34345 16.0125 6.14213 15.9413 5.90529 15.8531C5.66845 15.765 5.46713 15.6938 5.46121 15.6938C5.45332 15.6938 5.45332 15.7519 5.45924 15.825C5.46713 15.8963 5.46713 15.9563 5.45726 15.9563C5.44937 15.9563 5.37437 15.9019 5.2895 15.8344C5.20463 15.7669 5.12963 15.7125 5.12371 15.7125C5.11779 15.7125 5.11187 15.7294 5.11187 15.7481C5.11187 15.78 5.08424 15.7744 4.86121 15.6825C4.72305 15.6263 4.60266 15.5813 4.59476 15.5813C4.58687 15.5813 4.57898 15.6319 4.57898 15.6938C4.57898 15.7556 4.577 15.8063 4.57503 15.8063C4.57108 15.8063 4.33819 15.7219 4.05595 15.6206C3.77371 15.5194 3.53884 15.4388 3.5349 15.4425C3.53292 15.4444 3.57437 15.525 3.63161 15.6188C3.68687 15.7144 3.73029 15.795 3.72437 15.7988C3.71845 15.8044 3.14608 15.6169 2.97634 15.5531C2.94871 15.5438 2.94082 15.5494 2.94082 15.5794C2.94082 15.6019 2.93292 15.6188 2.92503 15.6188C2.91713 15.6188 2.81845 15.5869 2.70792 15.5456L2.50661 15.4744V15.555C2.50661 15.6544 2.53226 15.6506 2.11187 15.6C1.63819 15.5438 1.36384 15.525 0.977001 15.525C0.647396 15.525 0.260554 15.5456 0.098712 15.5738L0.0296331 15.585L0.0888436 15.615C0.122396 15.63 0.276344 15.6975 0.432265 15.7631C0.943449 15.9788 1.46845 16.1306 1.91253 16.1888C2.02503 16.2038 2.11976 16.2206 2.12569 16.2263C2.13161 16.23 2.12569 16.2506 2.11384 16.2713C2.07832 16.3331 2.08621 16.3425 2.21648 16.3931C2.46516 16.4906 2.73555 16.5563 2.88753 16.5563C3.02963 16.5563 3.02963 16.5788 2.88753 16.6594C2.81648 16.7006 2.75924 16.7419 2.75924 16.7531C2.76319 16.7794 3.02371 16.8825 3.18358 16.92C3.28819 16.9444 3.4895 16.9631 3.70463 16.9688C3.70661 16.9688 3.677 17.0381 3.64148 17.1244C3.60595 17.2088 3.58226 17.2838 3.58819 17.2894C3.61582 17.3156 3.98292 17.385 4.1349 17.3944C4.22371 17.4 4.34213 17.3944 4.39937 17.3831C4.45858 17.3719 4.50792 17.3644 4.51187 17.3663C4.51384 17.37 4.46845 17.4431 4.40924 17.5294C4.35003 17.6156 4.30463 17.6888 4.30858 17.6944C4.3145 17.6981 4.3974 17.715 4.49411 17.7319C4.70529 17.7656 5.08819 17.7563 5.25003 17.7113C5.30924 17.6963 5.38029 17.6756 5.40595 17.67C5.44542 17.6588 5.42569 17.6906 5.30332 17.8313C5.22042 17.9288 5.15134 18.015 5.15134 18.0244C5.15134 18.0356 5.252 18.0375 5.39411 18.0338C5.60529 18.0244 5.66648 18.015 5.89345 17.9456C6.03555 17.9044 6.15792 17.8688 6.16582 17.8688C6.17174 17.8688 6.12042 17.9419 6.05134 18.0319C5.98029 18.1238 5.92503 18.1969 5.927 18.1988C5.92898 18.2006 6.19542 18.1725 6.52108 18.1369C6.84476 18.1013 7.11319 18.0769 7.11713 18.0806C7.12108 18.0844 7.10332 18.1369 7.07371 18.195C7.04608 18.255 7.02634 18.3056 7.02832 18.3094C7.03226 18.3131 7.22963 18.2775 7.46648 18.2306C7.70332 18.1838 7.90266 18.15 7.90858 18.1556C7.9145 18.1613 7.90858 18.21 7.89476 18.2625C7.88095 18.315 7.87305 18.3619 7.87898 18.3656C7.88292 18.3694 8.09608 18.3206 8.35266 18.255L8.82042 18.1388L8.83226 18.21C8.84213 18.2663 8.85398 18.2813 8.87766 18.2719C8.8974 18.2663 9.0849 18.2044 9.29608 18.135L9.68095 18.0075L9.68687 18.0619C9.69279 18.1031 9.70069 18.1125 9.72634 18.1031C10.3382 17.88 10.7665 17.775 11.2204 17.7394C11.4809 17.7169 11.7671 17.715 11.8402 17.7356C11.8875 17.7469 11.8875 17.7469 10.6342 18.1256L10.1467 18.2719L10.1882 18.3131L10.2277 18.3525L10.1329 18.3656C9.69279 18.4181 9.36121 18.4969 9.34148 18.555C9.33753 18.5663 9.35726 18.585 9.38687 18.5981C9.41648 18.6094 9.43424 18.6244 9.43029 18.63C9.42437 18.6338 9.30003 18.6544 9.152 18.675C8.85398 18.7181 8.65266 18.7688 8.58161 18.8231L8.53621 18.8606L8.61319 18.9338C8.70003 19.0219 8.72766 19.0069 8.35858 19.0781C8.21845 19.1063 8.04476 19.1494 7.97569 19.1738C7.83555 19.2244 7.70924 19.305 7.727 19.3331C7.7349 19.3425 7.77634 19.3688 7.82174 19.3913L7.90463 19.4306L7.79608 19.4569C7.62437 19.4963 7.39345 19.6106 7.0974 19.8L6.82305 19.9763L6.90003 20.0081C6.94148 20.0269 6.98884 20.0419 7.00266 20.0419C7.04805 20.0456 7.02634 20.0756 6.93358 20.1394C6.39674 20.505 5.47305 21.2494 5.21845 21.5194C4.97174 21.7819 4.82569 22.0125 4.8395 22.1119C4.84542 22.155 4.87305 22.1363 5.19082 21.8981C5.81845 21.4238 6.33753 21.0956 6.70069 20.9456C6.92963 20.85 6.98687 20.8369 6.98687 20.8763C6.98687 20.8931 6.99674 20.9063 7.00661 20.9063C7.01845 20.9063 7.22371 20.7956 7.46253 20.6625C7.70134 20.5275 7.90661 20.4188 7.9145 20.4188C7.92437 20.4188 7.93424 20.475 7.93819 20.5425L7.94411 20.6663L8.26976 20.4225C8.4474 20.2875 8.5974 20.1788 8.59937 20.1825C8.60332 20.1863 8.61319 20.25 8.62108 20.325L8.6349 20.46L8.74937 20.3081C8.81253 20.2256 8.91516 20.1038 8.97634 20.04C9.08095 19.9331 9.30003 19.7625 9.33555 19.7625C9.34345 19.7625 9.34542 19.8356 9.3395 19.9256L9.32963 20.0869L9.42437 20.0231C9.56648 19.9275 9.89805 19.62 10.0559 19.4363L10.1941 19.275L10.2 19.4025C10.202 19.4719 10.2099 19.5488 10.2158 19.5731C10.2257 19.6144 10.2296 19.6125 10.2908 19.5263C10.4487 19.3031 10.9165 18.8531 10.9895 18.8531C11.0132 18.8531 11.025 18.8738 11.0329 18.9244C11.0388 18.9638 11.0527 18.9956 11.0625 18.9938C11.0744 18.9938 11.1434 18.9375 11.2165 18.8681C11.3684 18.7256 11.5461 18.4819 11.7099 18.1875C11.8796 17.8856 11.8836 17.8819 11.8717 18.0844C11.8678 18.1763 11.8579 18.5438 11.852 18.9C11.8461 19.2563 11.8323 19.935 11.8224 20.4094C11.8125 20.8838 11.7948 21.7144 11.7829 22.2563C11.7731 22.7981 11.7592 23.4131 11.7513 23.6231L11.7395 24.0056L11.9033 23.9944C12 23.9869 12.0731 23.9719 12.0829 23.9588C12.0908 23.9456 12.0987 23.7863 12.0987 23.6063C12.0987 23.4263 12.1066 22.9031 12.1184 22.4438C12.1283 21.9844 12.1461 21.1238 12.1579 20.5313C12.2092 17.9513 12.2092 17.9456 12.2487 17.9044C12.2803 17.8706 12.2842 17.8706 12.3198 17.9006C12.3395 17.9175 12.454 18.0694 12.5744 18.2363C12.8073 18.5625 12.9829 18.7575 13.1665 18.8925L13.2829 18.9769V18.9113C13.2829 18.8306 13.2987 18.7875 13.3303 18.7875C13.3895 18.7875 13.8691 19.185 14.0862 19.4138L14.177 19.5094L14.1612 19.3313L14.1474 19.1531L14.3606 19.3519C14.5757 19.5488 14.8086 19.7269 14.9882 19.8263C15.0395 19.8544 15.0849 19.875 15.0908 19.8713C15.0948 19.8675 15.0869 19.7981 15.0711 19.7194C15.0513 19.6106 15.0513 19.575 15.0691 19.575C15.1086 19.575 15.3158 19.7025 15.4362 19.8C15.4994 19.8525 15.6119 19.965 15.6849 20.0475L15.8191 20.1975L15.829 20.055L15.8388 19.9125L16.1803 20.1281C16.3678 20.2463 16.5257 20.3438 16.5316 20.3438C16.5356 20.3438 16.5336 20.2838 16.5277 20.2125L16.5138 20.0794L16.6994 20.1619C16.802 20.2069 17.0191 20.3044 17.1829 20.3775C17.3487 20.4525 17.4888 20.5125 17.4948 20.5125C17.5007 20.5125 17.5066 20.4956 17.5066 20.4731C17.5066 20.43 17.4967 20.4281 17.7533 20.5069C18.1836 20.6363 18.7421 20.925 19.4862 21.3975C19.6145 21.4781 19.7309 21.5494 19.7467 21.5569C19.8395 21.5888 19.6934 21.3225 19.5257 21.15C19.2158 20.8313 18.4244 20.2781 17.5816 19.7888C17.475 19.7288 17.3902 19.6725 17.3882 19.6669C17.3882 19.6613 17.4237 19.6406 17.4671 19.6219C17.5125 19.6031 17.552 19.5806 17.5559 19.5731C17.5698 19.5544 17.3073 19.4119 17.0329 19.2863C16.8138 19.1869 16.6204 19.125 16.5257 19.125C16.5 19.125 16.4803 19.1156 16.4803 19.1063C16.4803 19.095 16.4882 19.0875 16.4961 19.0875C16.504 19.0875 16.5415 19.0631 16.579 19.0331L16.6461 18.9806L16.5474 18.9319C16.3915 18.8569 16.1823 18.8156 15.7638 18.7763L15.6316 18.765L15.7007 18.6844C15.7382 18.6394 15.7698 18.6 15.7698 18.5944C15.7698 18.5906 15.7283 18.5681 15.677 18.5475C15.5665 18.5025 15.3375 18.4706 15.1224 18.4669C15.0395 18.465 14.9448 18.4594 14.9112 18.4519L14.852 18.4406L14.8994 18.4088C14.925 18.3919 14.9388 18.3694 14.9329 18.36C14.8954 18.3019 14.5263 18.2456 14.1928 18.2438H14.027L14.0704 18.1988L14.1158 18.1538L13.9796 18.1238C13.9066 18.1088 13.5178 18.0281 13.1152 17.9438C12.7145 17.8613 12.3671 17.7863 12.3454 17.7769C12.2842 17.7525 12.7638 17.7131 13.1053 17.7131C13.4842 17.7131 13.7744 17.7525 14.2283 17.8613C14.4178 17.9063 14.5757 17.9438 14.5796 17.9438C14.5836 17.9438 14.5856 17.9231 14.5856 17.8969C14.5856 17.8706 14.5934 17.85 14.6053 17.85C14.6152 17.85 14.8027 17.8931 15.0217 17.9438C15.2408 17.9963 15.4323 18.0375 15.4461 18.0375C15.4638 18.0375 15.4737 18.015 15.4737 17.9719C15.4737 17.9325 15.4836 17.9063 15.4994 17.9063C15.5112 17.9063 15.7263 17.94 15.975 17.9813C16.2237 18.0225 16.4309 18.0525 16.4349 18.0506C16.4388 18.0469 16.4231 17.9963 16.4033 17.9381C16.3717 17.8538 16.3698 17.8313 16.3895 17.8313C16.4053 17.8313 16.6106 17.8519 16.8454 17.8781C17.0823 17.9044 17.2777 17.9231 17.2816 17.9213C17.2836 17.9175 17.2559 17.8669 17.2165 17.8069C17.179 17.7469 17.1494 17.6963 17.1533 17.6925C17.1573 17.6906 17.4277 17.6944 17.7533 17.7019C18.079 17.7094 18.3494 17.7131 18.3533 17.7075C18.3573 17.7038 18.2981 17.6363 18.2211 17.5556C18.1441 17.475 18.0829 17.4075 18.0849 17.4056C18.0869 17.4038 18.2171 17.4281 18.375 17.46C18.6178 17.5069 18.6928 17.5144 18.8586 17.5069C19.1606 17.4919 19.1566 17.4975 18.9533 17.3006C18.7974 17.1506 18.7856 17.1338 18.8388 17.145C19.1073 17.1938 19.2632 17.2013 19.4823 17.1713C19.6066 17.1544 19.7586 17.1244 19.8217 17.1056L19.9382 17.0719L19.8178 16.9275C19.7507 16.8469 19.6974 16.7775 19.6974 16.7719C19.6974 16.7681 19.7487 16.7681 19.8138 16.7738C19.9599 16.7888 20.1415 16.7588 20.4138 16.6763L20.625 16.6106L20.5402 16.4531L20.4533 16.2956L20.5441 16.2844C20.8875 16.2431 21.0395 16.2 21.2625 16.08C21.3356 16.0425 21.3948 16.0069 21.3948 16.0031C21.3948 15.9975 21.3257 15.9619 21.2428 15.9206L21.0888 15.8475L21.2073 15.825C21.4145 15.7875 21.5882 15.7313 21.7757 15.6469C22.0244 15.5363 22.0165 15.5419 21.9809 15.4744L21.9494 15.42L22.2296 15.3525C22.3836 15.315 22.5987 15.255 22.7073 15.2156C22.9342 15.1369 23.5283 14.8631 23.7987 14.7131L23.9823 14.61L23.8875 14.5969C23.7829 14.5819 23.3369 14.5969 23.0033 14.6269C22.7092 14.6531 22.3619 14.7075 21.9336 14.7956C21.7342 14.835 21.5645 14.8688 21.5546 14.8688C21.5448 14.8688 21.5309 14.835 21.5231 14.7938C21.5073 14.7038 21.5053 14.7038 21.2724 14.8144C21.0967 14.8988 21.0849 14.9006 21.075 14.8519C21.0691 14.82 21.0277 14.835 20.6961 14.9831C20.4908 15.075 20.3191 15.1481 20.3171 15.1444C20.3132 15.1425 20.3507 15.0563 20.4 14.955C20.4474 14.8538 20.4849 14.7675 20.4809 14.7638C20.479 14.76 20.254 14.8594 19.9856 14.9831C19.7152 15.1069 19.4902 15.2025 19.4842 15.1969C19.4783 15.1913 19.4704 15.1406 19.4645 15.0844L19.4546 14.9813L19.2119 15.1031C19.0777 15.1706 18.9592 15.225 18.9494 15.225C18.9375 15.225 18.9277 15.21 18.9277 15.1931C18.9277 15.1725 18.8724 15.2119 18.7717 15.3075L18.6178 15.4538L18.602 15.3113L18.5882 15.1706L18.1559 15.375C17.9191 15.4894 17.7198 15.5813 17.7138 15.5813C17.7079 15.5813 17.704 15.5475 17.704 15.5044C17.704 15.4406 17.6981 15.4294 17.6724 15.4388C17.6546 15.4463 17.477 15.5438 17.2796 15.6563C16.8454 15.9038 16.8553 15.9 16.8553 15.8363C16.8553 15.81 16.8494 15.7875 16.8434 15.7875C16.8375 15.7875 16.6658 15.8813 16.4606 15.9938C16.2553 16.1063 16.0836 16.2 16.0777 16.2C16.0737 16.2 16.0658 16.17 16.0619 16.1344L16.0559 16.0688L15.6612 16.3781C15.3888 16.5919 15.2645 16.68 15.2527 16.6631C15.2448 16.6519 15.2369 16.6013 15.2369 16.5506C15.2369 16.5019 15.2329 16.4625 15.227 16.4625C15.2211 16.4625 15.0296 16.5806 14.8027 16.725C14.5757 16.8694 14.3842 16.9875 14.3783 16.9875C14.3724 16.9875 14.3684 16.9669 14.3684 16.9406C14.3684 16.9144 14.3645 16.8938 14.3586 16.8938C14.3546 16.8938 14.2777 16.9406 14.1908 16.9969C13.9875 17.1281 13.6125 17.3025 13.3421 17.3906C13.2277 17.4281 12.9494 17.5088 12.7224 17.5688L12.3099 17.6775L12.2408 17.6119L12.1737 17.5463L12.1856 17.3944C12.2645 16.5094 12.525 15.855 13.0875 15.1294C13.1408 15.06 13.1842 15 13.1842 14.9944C13.1842 14.9888 13.1349 14.9775 13.0757 14.9719C13.0165 14.9644 12.9632 14.9513 12.9573 14.9456C12.9533 14.9381 13.0816 14.7338 13.2434 14.4938C13.4053 14.2538 13.5336 14.0494 13.5296 14.0419C13.5237 14.0363 13.4704 14.0231 13.4112 14.0156C13.352 14.01 13.3027 13.9988 13.3027 13.9931C13.3027 13.9875 13.4033 13.8525 13.5257 13.6913C13.6481 13.5281 13.7862 13.3444 13.8336 13.2788L13.9165 13.1625L13.8612 13.1438C13.7467 13.1044 13.6974 13.0819 13.6974 13.0744C13.6974 13.0688 13.7309 13.0275 13.7724 12.9825C13.8612 12.8888 13.9579 12.7219 14.0152 12.5681C14.0724 12.4144 14.1513 12.1613 14.1434 12.1538C14.1395 12.1519 14.0981 12.1575 14.0507 12.1669C13.8869 12.2044 13.8849 12.2006 13.9915 12.0488C14.1632 11.8069 14.2895 11.5406 14.3152 11.3588C14.325 11.2913 14.3231 11.2875 14.2638 11.2781C14.2283 11.2725 14.1553 11.2669 14.1 11.2631L14.0013 11.2594L14.3112 10.8C14.5323 10.4756 14.6132 10.3388 14.5934 10.335C14.5441 10.3238 14.2856 10.4063 14.1592 10.4719L14.0388 10.5356L14.1237 10.3819C14.1691 10.2975 14.2342 10.1513 14.2698 10.0594C14.3408 9.86625 14.4731 9.39938 14.4632 9.375C14.4592 9.36563 14.3388 9.4425 14.1948 9.54563C14.0487 9.64875 13.9283 9.73125 13.9244 9.7275C13.9224 9.72375 14.0033 9.6075 14.1059 9.46875C14.3566 9.1275 14.3487 9.14063 14.2559 9.18C14.1178 9.23438 14.1237 9.23438 14.1415 9.195C14.2145 9.03188 14.2342 8.94188 14.2362 8.74313C14.2382 8.62875 14.2342 8.52938 14.2263 8.52188C14.2184 8.51438 14.1356 8.53875 14.0428 8.57625C13.9481 8.61375 13.875 8.63625 13.879 8.62875C13.8829 8.62125 13.9165 8.55188 13.9579 8.475C14.0408 8.31188 14.0724 8.18438 14.0724 8.01375C14.0724 7.87313 14.0349 7.63125 14.0112 7.63125C14.0033 7.63125 13.9224 7.66125 13.8316 7.69875C13.5592 7.81125 13.5691 7.81125 13.6658 7.69688C13.8257 7.51125 13.9145 7.32 13.9145 7.16438C13.9145 7.08 13.8612 6.84188 13.8395 6.82125C13.8296 6.81188 13.7527 6.83063 13.6658 6.8625C13.5809 6.8925 13.5079 6.91875 13.5059 6.91875C13.502 6.91875 13.5296 6.88125 13.5671 6.83625C13.6382 6.74813 13.6875 6.62813 13.7092 6.48938C13.725 6.39938 13.7349 6.40313 13.5888 6.44063C13.5513 6.45188 13.5494 6.44438 13.5592 6.22125C13.5652 6.09375 13.5691 5.98875 13.5671 5.985C13.5652 5.98125 13.3934 6.03563 13.3145 6.0675C13.277 6.08063 13.277 6.07875 13.3165 6.01688C13.3856 5.91188 13.4408 5.72813 13.4408 5.60813C13.4408 5.51063 13.3638 5.17125 13.3362 5.145C13.3303 5.13938 13.2711 5.16938 13.2059 5.21063C13.1408 5.25375 13.0836 5.2875 13.0796 5.2875C13.0737 5.2875 13.0934 5.22188 13.1191 5.14125C13.1625 5.01938 13.1704 4.95938 13.1724 4.75313C13.1744 4.59375 13.1645 4.4775 13.1467 4.41938L13.1191 4.32938L13.0382 4.40063C12.9928 4.44 12.9316 4.49438 12.902 4.51875L12.8467 4.56563L12.9059 4.44375C12.9671 4.32188 12.9849 4.19813 12.9494 4.14563C12.9356 4.12688 12.9099 4.12313 12.8507 4.1325C12.8053 4.13813 12.7698 4.14188 12.7698 4.13813C12.7698 4.13625 12.7875 4.10063 12.8092 4.05938C12.8329 4.01625 12.8487 3.94875 12.8487 3.89625C12.8487 3.81188 12.7856 3.59063 12.752 3.55688C12.7441 3.54938 12.6869 3.53625 12.6277 3.52875L12.5152 3.51563L12.5862 3.40875C12.6652 3.28688 12.6829 3.15188 12.6336 3.04125C12.6079 2.98313 12.602 2.97938 12.5349 2.99063C12.4954 2.99625 12.45 3.00563 12.4323 3.01125C12.4046 3.01875 12.4027 2.98875 12.4106 2.75813C12.4244 2.32125 12.3296 1.83563 12.0671 1.00688C11.9606 0.671255 11.7434 0.0731295 11.7217 0.0468795C11.7119 0.0375045 11.704 0.0787545 11.704 0.14063Z" fill="currentColor"/>
<path d="M22.1448 5.66625C21.6218 6.23625 21.1856 6.705 21.1777 6.70875C21.1698 6.71063 21.1422 6.68438 21.1165 6.64688C21.0908 6.61125 21.0652 6.58125 21.0593 6.58125C21.0533 6.58125 21.0277 6.64688 21.004 6.7275C20.9783 6.81 20.9408 6.9075 20.9231 6.94688L20.8895 7.01813L20.8224 6.9225C20.7849 6.87 20.7474 6.825 20.7415 6.825C20.7336 6.825 20.6606 6.93938 20.5777 7.07813C20.4928 7.21688 20.4218 7.33125 20.4178 7.33125C20.4139 7.33125 20.3724 7.28063 20.329 7.21688C20.2836 7.155 20.2402 7.10625 20.2303 7.11C20.2205 7.11375 20.1632 7.17375 20.102 7.24688C20.027 7.33313 19.9303 7.4925 19.8158 7.71375L19.6422 8.0475L19.5395 7.90125C19.4823 7.81875 19.429 7.74563 19.4211 7.73813C19.4132 7.73063 19.356 7.84125 19.2908 7.9875C19.2277 8.13188 19.1705 8.25 19.1645 8.25C19.1586 8.25 19.1231 8.16938 19.0856 8.06813L19.0205 7.88813L18.9731 7.9425C18.8408 8.09813 18.7086 8.36625 18.6099 8.68125C18.5843 8.75813 18.5586 8.8275 18.5527 8.835C18.5468 8.8425 18.4974 8.77313 18.4441 8.68125C18.3908 8.5875 18.3395 8.5125 18.3316 8.5125C18.3119 8.5125 18.2408 8.6475 18.1935 8.775C18.1737 8.83125 18.1501 8.9475 18.1441 9.03188C18.1382 9.11813 18.1283 9.1875 18.1244 9.1875C18.1205 9.1875 18.0514 9.14438 17.9705 9.09375C17.8895 9.04125 17.8205 9 17.8145 9C17.8106 9 17.8007 9.0825 17.7928 9.18188C17.7849 9.28313 17.7711 9.40313 17.7612 9.45C17.7297 9.59813 17.6783 9.76875 17.6665 9.76875C17.6606 9.76875 17.6191 9.65813 17.5757 9.52313L17.4968 9.27938L17.4178 9.36375C17.2777 9.51375 17.1474 9.74063 17.0606 9.98813L16.9797 10.2206L16.8869 10.08C16.8356 10.0013 16.7902 9.9375 16.7862 9.9375C16.7803 9.9375 16.7014 10.1719 16.6441 10.3556C16.6362 10.3875 16.6303 10.3875 16.579 10.3406L16.5237 10.29L16.504 10.3538C16.4606 10.4794 16.4014 10.7831 16.4014 10.8675C16.4014 10.9163 16.3955 10.95 16.3876 10.9425C16.3797 10.935 16.3441 10.8563 16.3106 10.7681L16.2494 10.605L16.1645 10.725C16.0658 10.8619 15.8803 11.2313 15.7994 11.445C15.7362 11.6119 15.7323 11.61 15.6908 11.385C15.677 11.3119 15.6593 11.25 15.6533 11.25C15.606 11.2519 15.2764 12.105 15.2764 12.2269C15.2764 12.3075 15.2428 12.2513 15.1895 12.0844C15.158 11.985 15.1264 11.9119 15.1185 11.9194C15.1126 11.9269 15.0948 11.9869 15.081 12.0525C15.0691 12.1163 15.0356 12.2344 15.008 12.315C14.9566 12.4613 14.7711 12.84 14.7178 12.9094C14.6882 12.9469 14.6862 12.945 14.6645 12.8906C14.6527 12.8588 14.6389 12.8213 14.633 12.8063C14.6172 12.765 14.4573 13.0744 14.3783 13.3013C14.3408 13.4044 14.2955 13.5638 14.2757 13.6538C14.258 13.7456 14.2362 13.8188 14.2303 13.8188C14.2224 13.8188 14.2066 13.7756 14.1928 13.725C14.179 13.6725 14.1612 13.6313 14.1533 13.6313C14.1455 13.6313 14.1198 13.7513 14.0941 13.8975C14.0685 14.0456 14.0349 14.235 14.0191 14.3213L13.9895 14.4769L13.9145 14.3794L13.8376 14.2838L13.808 14.34C13.727 14.4881 13.6441 14.8688 13.6323 15.15L13.6283 15.2531L13.5849 15.1781C13.5553 15.1256 13.5395 15.1125 13.5316 15.1313C13.5257 15.1463 13.4764 15.3113 13.4211 15.4969C13.2948 15.9244 13.3027 15.9056 13.2751 15.8175L13.2533 15.7444L13.1665 15.9488C13.058 16.2094 12.6691 16.9331 12.4461 17.2913C12.2843 17.5519 12.2586 17.6063 12.2922 17.6063C12.3001 17.6063 12.3711 17.535 12.4501 17.4488C12.8468 17.0138 13.2849 16.6781 13.7369 16.4625C13.9777 16.3481 14.3823 16.2113 14.7178 16.1344L14.8619 16.1025L14.783 16.0144L14.704 15.9281L14.9468 15.8531C15.079 15.8119 15.2981 15.7444 15.4343 15.705C15.5705 15.6638 15.6849 15.6281 15.6889 15.6263C15.6928 15.6225 15.6632 15.5813 15.6237 15.5344C15.5724 15.4763 15.5586 15.4481 15.5764 15.4406C15.5902 15.4369 15.7481 15.3975 15.9277 15.3544C16.2652 15.2738 16.5001 15.21 16.5001 15.1988C16.5001 15.195 16.4783 15.1556 16.4507 15.1106C16.3994 15.0244 16.4093 15 16.4922 15C16.6283 15 17.0487 14.805 17.2382 14.6569L17.2955 14.6138L17.2027 14.5613C17.1514 14.5331 17.1119 14.5069 17.1158 14.5031C17.1198 14.5013 17.2185 14.4675 17.3369 14.43C17.5836 14.3513 17.779 14.2594 17.8915 14.1656L17.9705 14.1L17.856 14.0006L17.7395 13.9013L17.9349 13.8431C18.0415 13.8113 18.2744 13.7419 18.452 13.6875L18.7737 13.59L18.7185 13.5544C18.6415 13.5056 18.4895 13.4531 18.3474 13.425L18.231 13.4025L18.3691 13.3519C18.5408 13.2881 18.754 13.1681 19.0461 12.9694C19.2652 12.8213 19.2711 12.8156 19.2139 12.8044C19.1803 12.7969 19.0757 12.7913 18.977 12.7894C18.8803 12.7875 18.7658 12.78 18.7224 12.7725C18.6533 12.7613 18.6711 12.7538 18.9652 12.6769C19.1389 12.6319 19.277 12.5869 19.2711 12.5794C19.2672 12.57 19.2316 12.5588 19.1941 12.5513C19.1073 12.5363 19.1073 12.5213 19.1961 12.4819C19.3066 12.4313 19.6185 12.1331 19.6185 12.0769C19.6185 12.0675 19.5474 12.0413 19.4606 12.0169C19.3737 11.9925 19.3027 11.9681 19.3027 11.9625C19.3027 11.9569 19.356 11.9325 19.4211 11.91C19.5711 11.8538 19.7448 11.73 19.8376 11.6119C19.9343 11.49 20.0349 11.3269 20.0172 11.3194C20.0093 11.3156 19.9165 11.2875 19.808 11.2594L19.6145 11.205L19.7922 11.1638C19.9856 11.1188 20.1455 11.0363 20.2362 10.9313C20.2836 10.8788 20.408 10.6688 20.408 10.6425C20.408 10.6388 20.3349 10.6106 20.2461 10.5825L20.0823 10.53L20.1691 10.515C20.2165 10.5075 20.2856 10.4869 20.3211 10.4681C20.4001 10.4288 20.5639 10.3088 20.5658 10.29C20.5658 10.2844 20.5343 10.2675 20.4968 10.2563C20.4593 10.245 20.4277 10.2281 20.4277 10.2225C20.4297 10.215 20.4948 10.1419 20.5757 10.0594C20.6566 9.97688 20.7158 9.90375 20.708 9.89813C20.7001 9.8925 20.6468 9.87188 20.5915 9.85125C20.4751 9.81375 20.4632 9.79688 20.5382 9.78C20.6191 9.75938 20.7849 9.6525 20.8599 9.57188C20.8974 9.5325 20.9626 9.4275 21.006 9.34125C21.0948 9.165 21.0908 9.15188 20.9507 9.15C20.8145 9.14813 20.8106 9.12563 20.933 9.04688C21.156 8.90813 21.3119 8.74125 21.3948 8.5575L21.4343 8.47125L21.2626 8.4825L21.0889 8.49563L21.2112 8.4375C21.3277 8.38313 21.4343 8.28938 21.4343 8.2425C21.4343 8.23125 21.4066 8.205 21.3751 8.18625C21.3158 8.15438 21.3119 8.11875 21.3652 8.11875C21.4086 8.11875 21.531 8.00813 21.5705 7.93313C21.5922 7.89563 21.6198 7.83 21.6336 7.785C21.6573 7.70438 21.6573 7.70438 21.5843 7.63313L21.5093 7.56L21.6099 7.52813C21.7402 7.48688 21.8251 7.41938 21.8724 7.31625C21.9099 7.2375 21.9099 7.23375 21.8744 7.20938C21.8547 7.19438 21.8152 7.17375 21.7856 7.16063L21.7323 7.14L21.8586 7.02C22.1764 6.71813 22.5869 5.97 22.9816 4.97063C23.0527 4.79063 23.108 4.64063 23.104 4.63688C23.1001 4.63313 22.6678 5.09625 22.1448 5.66625Z" fill="currentColor"/>
</g>
<defs>
<clipPath id="clip0_107_6">
<rect width="24" height="24" fill="white"/>
</clipPath>
</defs>
</svg>
